HIERARCHY
ROOT Hips
{
  OFFSET 46.2788 93.4474 106.522
  CHANNELS 6 Xposition Yposition Zposition Zrotation Xrotation Yrotation
  JOINT ToSpine
  {
    OFFSET -2.69724 7.43032 -0.144315
    CHANNELS 3 Zrotation Xrotation Yrotation
    JOINT Spine
    {
      OFFSET -0.0310711 10.7595 1.96963
      CHANNELS 3 Zrotation Xrotation Yrotation
      JOINT Spine1
      {
        OFFSET 13.1342 3.43533 0.764692
        CHANNELS 3 Zrotation Xrotation Yrotation
        JOINT Neck
        {
          OFFSET 29.8703 7.82586 -0.130764
          CHANNELS 3 Zrotation Xrotation Yrotation
          JOINT Head
          {
            OFFSET 9.52751 0.295786 -0.907742
            CHANNELS 3 Zrotation Xrotation Yrotation
            End Site
            {
              OFFSET 16.4037 0.713936 2.7358
            }
          }
        }
        JOINT LeftShoulder
        {
          OFFSET 27.5574 4.95586 2.47156
          CHANNELS 3 Zrotation Xrotation Yrotation
          JOINT LeftArm
          {
            OFFSET 1.20734 -0.998971 20.1238
            CHANNELS 3 Zrotation Xrotation Yrotation
            JOINT LeftForeArm
            {
              OFFSET 26.8049 -0.0536703 -0.155908
              CHANNELS 3 Zrotation Xrotation Yrotation
              JOINT LeftHand
              {
                OFFSET 26.6817 0 0.320147
                CHANNELS 3 Zrotation Xrotation Yrotation
                End Site
                {
                  OFFSET 18.6119 0 0.382219
                }
              }
            }
          }
        }
        JOINT RightShoulder
        {
          OFFSET 27.5927 4.71444 -2.65209
          CHANNELS 3 Zrotation Xrotation Yrotation
          JOINT RightArm
          {
            OFFSET 2.83739 -1.17114 -18.7564
            CHANNELS 3 Zrotation Xrotation Yrotation
            JOINT RightForeArm
            {
              OFFSET 28.839 -0.0548439 1.22491
              CHANNELS 3 Zrotation Xrotation Yrotation
              JOINT RightHand
              {
                OFFSET 26.5114 0 -0.101894
                CHANNELS 3 Zrotation Xrotation Yrotation
                End Site
                {
                  OFFSET 18.2168 0 0
                }
              }
            }
          }
        }
      }
    }
  }
  JOINT LeftUpLeg
  {
    OFFSET -4.76168 -1.9167 -10.2353
    CHANNELS 3 Zrotation Xrotation Yrotation
    JOINT LeftLeg
    {
      OFFSET 2.55951 -42.0585 -8.02213
      CHANNELS 3 Zrotation Xrotation Yrotation
      JOINT LeftFoot
      {
        OFFSET 3.16357 -42.5282 -3.95426
        CHANNELS 3 Zrotation Xrotation Yrotation
        JOINT LeftToeBase
        {
          OFFSET 0.346054 -6.02161 12.8035
          CHANNELS 3 Zrotation Xrotation Yrotation
          End Site
          {
            OFFSET 0.134235 -1.35082 5.13018
          }
        }
      }
    }
  }
  JOINT RightUpLeg
  {
    OFFSET -4.94151 -1.41743 10.6446
    CHANNELS 3 Zrotation Xrotation Yrotation
    JOINT RightLeg
    {
      OFFSET -2.56294 -42.0364 -7.94377
      CHANNELS 3 Zrotation Xrotation Yrotation
      JOINT RightFoot
      {
        OFFSET -3.0952 -42.555 -4.02241
        CHANNELS 3 Zrotation Xrotation Yrotation
        JOINT RightToeBase
        {
          OFFSET -0.0828122 -6.13587 12.8035
          CHANNELS 3 Zrotation Xrotation Yrotation
          End Site
          {
            OFFSET -0.131328 -1.35082 5.13018
          }
        }
      }
    }
  }
}
MOTION
Frames:	6
Frame Time:	0.0333333
48.9074 91.6465 117.045 -68.6896 -25.5661 -170.127 -70.1915 0 88.8779 98.3932 75.9727 -6.25041 -1.66611 28.9367 0.95979 -142.245 12.496 -163.774 -154.144 48.3919 -174.132 1.09828 -10.1783 -22.7603 -141.457 30.3789 -72.3912 13.1687 -6.50505 -114.907 0.66078 -0.00868661 -0.945059 -0.963389 8.35327 25.3123 -49.6101 -29.6123 157.686 1.91063 0.6553 107.767 0.58676 0.000331079 0.0646652 -37.527 15.7284 95.5397 -3.8656 45.9894 -12.6775 -3.95495 -8.94988 -0.594328 3.6297 -9.49625 7.97973 -52.6848 -17.5336 80.9021 -0.146114 34.8329 5.52552 -2.74483 -9.61288 1.01799 2.20448 -16.9819 -9.84579 
48.3596 91.7792 115.042 -68.9697 -25.7378 -170.167 -70.1915 0 88.8779 98.2781 75.8716 -6.52893 -1.82445 28.7299 1.20375 -142.426 12.4241 -163.323 -154.907 48.3998 -173.438 1.07808 -10.3293 -22.9078 -142.006 29.112 -73.3837 13.166 -6.16736 -113.743 0.547 -0.00940038 -0.533247 -0.930266 8.36999 24.8661 -49.6965 -29.8269 158.761 2.36547 0.785903 107.498 0.58676 0.000331079 0.0646652 -38.3904 16.5591 94.9787 -3.45441 43.5781 -11.6284 -4.16857 -6.08635 -0.253672 4.67729 -11.022 5.65177 -52.7369 -15.948 81.6542 -0.0514474 35.2043 2.8792 -2.35172 -10.1187 1.03338 2.1977 -17.1953 -5.91934 
47.7556 92.1669 112.935 -69.2459 -26.1418 -169.758 -70.1915 0 88.8779 98.5205 75.7748 -6.72064 -1.76288 28.762 1.25776 -142.235 12.2613 -163.667 -154.462 48.2017 -173.674 1.08179 -10.3216 -22.7486 -141.761 29.4339 -74.0743 13.7334 -6.03538 -112.368 0.559857 -0.00931992 -0.522771 -0.908126 8.44008 24.4702 -49.7683 -30.49 159.304 3.09926 1.02421 107.572 0.58676 0.000331079 0.0646652 -39.361 17.6391 94.6316 -2.98893 40.4929 -10.2789 -3.65 -3.9024 -0.0488296 3.98892 -9.55895 4.72733 -53.2328 -14.4538 80.7489 0.0650342 35.1837 1.87427 -2.24179 -11.9051 1.13329 1.86915 -14.4652 -3.03863 
47.1373 92.6812 110.893 -69.1435 -26.7843 -169.261 -70.1915 0 88.8779 96.562 75.6948 -4.62478 -1.21116 28.7638 0.933017 -142.089 12.4503 -163.861 -154.724 48.4685 -173.122 1.0553 -10.5464 -22.6452 -142.158 30.5556 -73.9122 15.023 -6.21054 -111.068 0.629555 -0.00888331 -0.623156 -0.857821 8.54053 23.6894 -49.4415 -31.3328 159.584 3.2128 1.07214 107.723 0.58676 0.000331079 0.0646652 -40.2939 18.0599 94.2964 -2.54559 36.8099 -9.03519 -3.97324 -1.36461 0.271985 2.8324 -8.06338 7.87294 -54.0434 -13.5112 78.4235 0.43906 34.1775 3.47591 -3.06815 -12.2954 1.17638 1.84867 -13.5559 -4.50428 
46.7126 93.0878 109.023 -68.8208 -27.711 -168.731 -70.1915 0 88.8779 95.7228 75.4446 -3.52839 -0.988208 28.6675 0.36149 -141.914 12.4205 -164.26 -154.435 48.4372 -173.265 1.04295 -10.6554 -22.5838 -141.349 31.1551 -74.3632 15.4917 -6.03 -109.893 0.650915 -0.00874952 -0.651373 -0.826573 8.33872 23.6043 -49.493 -31.2499 159.53 2.90633 0.997533 108.101 0.58676 0.000331079 0.0646652 -40.6372 18.0879 94.5097 -2.2343 34.0409 -7.96714 -5.35995 -0.153755 0.582726 1.40183 -6.50317 11.883 -54.2801 -12.4377 77.6253 0.836622 33.8252 3.6023 -2.96918 -13.0763 1.21521 1.79146 -11.621 -6.24547 
46.4003 93.3526 107.451 -68.7864 -28.5005 -168.652 -70.1915 0 88.8779 94.5171 75.1688 -2.55529 -0.600277 28.3634 0.124712 -141.808 12.2381 -164.689 -154.46 48.2643 -173.577 1.03583 -10.7078 -22.8123 -140.902 31.2392 -74.3474 16.5825 -6.21103 -109.123 0.64764 -0.00877042 -0.518655 -0.824424 8.34933 23.5605 -49.6779 -31.2879 159.305 3.21475 1.11394 108.292 0.58676 0.000331079 0.0646652 -40.7548 18.0332 96.4574 -2.25813 33.5614 -8.28994 -5.52033 -0.0627949 0.616469 0.708817 -5.62191 12.9475 -54.2735 -11.4989 77.6977 0.958939 34.0014 3.00269 -3.37273 -13.9441 1.26487 1.8084 -10.4561 -7.58139 
